<?xml version="1.0" standalone="no"?>
<!DOCTYPE svg PUBLIC "-//W3C//DTD SVG 20010904//EN"
 "http://www.w3.org/TR/2001/REC-SVG-20010904/DTD/svg10.dtd">
<svg version="1.0" xmlns="http://www.w3.org/2000/svg"
 width="512.000000pt" height="512.000000pt" viewBox="0 0 512.000000 512.000000"
 preserveAspectRatio="xMidYMid meet">
<metadata>
Created by potrace 1.14, written by Peter Selinger 2001-2017
</metadata>
<g transform="translate(0.000000,512.000000) scale(0.100000,-0.100000)"
fill="#000000" stroke="none">
<path d="M2379 5116 c-2 -2 -35 -6 -74 -10 -103 -9 -246 -33 -360 -62 -118
-29 -286 -83 -299 -95 -6 -5 -16 -9 -24 -9 -20 0 -224 -97 -330 -156 -282
-160 -501 -350 -753 -651 -38 -46 -167 -241 -211 -319 -130 -233 -225 -487
-277 -744 -20 -97 -27 -148 -41 -280 -8 -82 -5 -463 5 -520 3 -19 12 -75 20
-125 58 -357 190 -694 392 -998 339 -512 867 -895 1453 -1055 107 -30 245 -57
340 -68 30 -3 77 -10 103 -14 50 -7 471 -5 517 4 14 2 45 7 70 10 36 5 171 31
271 51 171 35 495 170 694 290 596 358 1027 951 1179 1621 31 139 37 175 53
319 10 89 10 407 1 505 -7 76 -46 308 -53 320 -2 4 -6 17 -9 31 -51 273 -235
663 -440 934 -190 251 -428 469 -696 639 -287 181 -702 330 -1012 362 -35 3
-67 9 -72 12 -10 6 -441 13 -447 8z m441 -180 c14 -3 47 -8 74 -11 27 -3 95
-15 150 -26 764 -158 1409 -687 1714 -1406 62 -146 124 -342 145 -463 5 -27
14 -78 22 -125 26 -155 27 -537 1 -670 -2 -11 -7 -42 -10 -70 -4 -27 -19 -97
-33 -155 -164 -683 -610 -1252 -1233 -1573 -169 -88 -434 -184 -577 -211 -233
-43 -309 -51 -513 -51 -182 0 -275 8 -427 35 -370 67 -717 221 -1038 463 -103
78 -344 319 -422 422 -149 198 -281 437 -357 645 -39 108 -90 293 -106 390 -6
36 -13 76 -16 90 -25 144 -25 527 1 685 7 40 16 94 22 125 18 103 77 300 125
420 37 91 144 300 195 380 326 510 825 880 1394 1034 150 40 248 58 414 76 74
8 433 5 475 -4z"/>
<path d="M2375 4254 c-169 -20 -305 -53 -408 -96 -44 -19 -57 -37 -62 -83 -3
-23 26 -63 54 -75 26 -10 40 -9 108 14 94 31 234 62 322 72 145 15 343 7 471
-20 102 -22 150 -7 164 49 13 52 -26 98 -94 110 -19 3 -42 8 -50 10 -98 28
-355 38 -505 19z"/>
<path d="M1481 3814 l-30 -25 -1 -403 c0 -228 4 -414 9 -427 5 -13 63 -79 130
-145 83 -85 119 -128 117 -140 -2 -11 -7 -82 -10 -159 -4 -78 -9 -174 -11
-215 -5 -99 -14 -273 -20 -412 -3 -62 -8 -144 -10 -183 -11 -179 -18 -368 -19
-455 0 -108 20 -162 82 -225 57 -57 115 -80 202 -80 122 1 209 55 261 163 26
53 29 128 15 372 -4 74 -9 178 -11 230 -3 52 -7 136 -10 185 -3 50 -7 144 -10
210 -3 66 -8 154 -10 195 -11 226 -18 367 -17 384 1 10 53 71 118 135 64 63
120 126 125 139 5 13 9 202 9 421 0 384 -1 399 -20 424 -39 49 -114 44 -139
-10 -7 -16 -11 -144 -11 -395 l0 -372 -128 -130 -129 -131 2 -70 c3 -75 14
-321 20 -420 2 -33 6 -116 9 -185 4 -69 8 -165 11 -215 9 -165 23 -463 29
-596 4 -81 -12 -122 -56 -149 -43 -26 -77 -25 -119 3 -44 29 -59 74 -54 162 3
39 7 122 10 185 7 152 14 294 20 410 3 52 8 145 11 205 2 61 7 146 9 190 2 44
7 136 10 205 4 69 8 152 10 185 2 35 -2 72 -10 90 -7 16 -65 82 -129 145
l-116 115 0 380 c-1 409 0 404 -54 425 -40 15 -51 13 -85 -16z"/>
<path d="M1741 3820 c-12 -11 -26 -35 -30 -52 -3 -18 -6 -187 -6 -376 1 -328
2 -343 22 -370 36 -48 111 -42 136 10 12 28 15 91 13 395 -1 352 -2 363 -22
383 -30 30 -83 35 -113 10z"/>
<path d="M1993 3816 l-28 -24 -1 -369 c-1 -234 2 -375 9 -388 16 -30 39 -44
73 -45 39 0 72 26 82 65 4 17 7 184 7 372 -1 366 -3 380 -52 402 -36 17 -59
13 -90 -13z"/>
<path d="M3105 3826 c-100 -26 -185 -87 -238 -172 -27 -43 -84 -218 -112 -344
-20 -87 -28 -262 -15 -335 17 -99 20 -109 46 -164 31 -63 85 -125 145 -167
l41 -28 -7 -171 c-3 -93 -8 -197 -10 -230 -2 -33 -6 -130 -10 -215 -7 -162 -8
-199 -21 -470 -13 -300 -11 -380 11 -425 111 -225 448 -211 538 22 17 44 18
136 3 418 -6 115 -14 275 -21 460 -3 72 -8 166 -10 210 -2 44 -7 152 -10 240
l-6 160 55 42 c94 72 154 173 173 290 14 86 8 283 -10 363 -32 135 -86 294
-118 345 -46 73 -124 137 -202 164 -55 19 -164 22 -222 7z m167 -171 c48 -17
101 -62 123 -105 21 -41 85 -268 94 -335 11 -76 6 -216 -9 -276 -17 -67 -74
-137 -141 -171 -70 -37 -87 -65 -84 -143 7 -156 17 -386 20 -445 2 -36 7 -135
10 -220 4 -85 8 -184 10 -220 2 -36 7 -131 10 -212 3 -80 8 -188 10 -239 4
-102 -7 -136 -53 -161 -36 -19 -104 -15 -135 8 -35 25 -45 56 -42 134 8 203
17 422 20 470 2 30 6 127 10 215 4 88 8 189 10 225 2 36 6 139 10 230 4 91 8
190 10 220 2 54 -7 88 -29 103 -6 4 -33 20 -61 36 -60 34 -115 103 -135 168
-20 67 -18 259 4 348 43 178 76 266 118 311 62 67 144 88 230 59z"/>
<path d="M3761 3676 c-35 -19 -50 -54 -40 -89 4 -16 32 -61 61 -101 140 -187
230 -383 279 -609 61 -278 34 -621 -68 -867 -81 -197 -179 -353 -303 -487 -27
-29 -54 -61 -60 -72 -29 -55 12 -121 76 -121 33 0 45 7 92 58 392 418 549 988
426 1541 -46 207 -129 401 -249 581 -112 169 -152 200 -214 166z"/>
<path d="M1213 3590 c-44 -18 -179 -248 -247 -423 -15 -37 -40 -118 -56 -180
-103 -402 -61 -807 122 -1186 66 -137 207 -333 306 -430 41 -38 49 -42 81 -37
46 7 73 35 74 78 1 36 -10 53 -92 143 -78 86 -151 196 -215 322 -128 255 -179
536 -153 833 21 237 108 485 240 687 62 92 68 112 51 151 -18 44 -63 61 -111
42z"/>
<path d="M2351 1029 c-68 -14 -87 -111 -29 -148 27 -17 106 -25 238 -24 232 1
262 12 276 92 4 22 -27 70 -50 77 -11 4 -45 5 -75 4 -129 -5 -249 -5 -286 0
-22 3 -55 3 -74 -1z"/>
</g>
</svg>
